<svg width="292" height="25" viewBox="0 0 292 25" fill="none" xmlns="http://www.w3.org/2000/svg">
<path d="M6.96461 24.4999V3.53493H-0.000390526V0.0349307H17.4296V3.53493H10.4646V24.4999H6.96461ZM30.7127 20.9299V10.4649H34.2127V20.9299H30.7127ZM20.2477 24.4299V20.9299H30.7127V24.4299H20.2477ZM16.7477 20.9299V10.4649H20.2477V20.9299H16.7477ZM20.2477 10.4649V6.96493H30.7127V10.4649H20.2477ZM37.0162 13.9649V10.4649H40.5162V13.9649H37.0162ZM37.0162 24.4299V20.9299H40.5162V24.4299H37.0162ZM60.8053 20.9649V3.49993H64.3053V10.4649H74.7703V13.9649H64.3053V20.9649H60.8053ZM64.3053 24.4649V20.9649H78.2703V24.4649H64.3053ZM64.3053 3.49993V-6.88434e-05H78.2703V3.49993H64.3053ZM81.0738 24.4299V10.4649H84.5388V6.96493H91.5388V10.4649H84.5388V24.4299H81.0738ZM95.0388 24.4299V13.9649H98.5038V24.4299H95.0388ZM91.5388 13.9649V10.4649H95.0388V13.9649H91.5388ZM104.808 20.9999V10.5349H101.308V7.03493H104.808V0.0699303H108.308V7.03493H115.273V10.5349H108.308V20.9999H104.808ZM108.308 24.4999V20.9999H115.273V24.4999H108.308ZM115.273 20.9999V17.5349H118.773V20.9999H115.273ZM121.577 20.9649V10.4999H125.077V13.9999H135.542V10.4999H139.042V17.4999H135.542H125.077V20.9649H121.577ZM125.077 24.4649V20.9649H139.042V24.4649H125.077ZM125.077 10.4999V6.99993H135.542V10.4999H125.077ZM141.845 24.4299V10.4649H145.345V24.4299H141.845ZM145.345 10.4649V6.96493H155.81V10.4649H145.345ZM155.81 13.9649V10.4649H159.31V13.9649H155.81ZM170.864 24.4649V20.9649H174.364V3.49993H170.864V-6.88434e-05H181.364V3.49993H177.864V20.9649H181.364V24.4649H170.864ZM184.16 24.4299V10.4649H187.625V6.96493H194.625V10.4649H187.625V24.4299H184.16ZM198.125 24.4299V13.9649H201.59V24.4299H198.125ZM194.625 13.9649V10.4649H198.125V13.9649H194.625ZM204.394 24.4649V6.99993H207.894V24.4649H204.394ZM204.394 3.49993V0.0349307H207.894V3.49993H204.394ZM214.183 20.9999V10.5349H210.683V7.03493H214.183V0.0699303H217.683V7.03493H224.648V10.5349H217.683V20.9999H214.183ZM217.683 24.4999V20.9999H224.648V24.4999H217.683ZM224.648 20.9999V17.5349H228.148V20.9999H224.648ZM230.952 24.4649V6.99993H234.452V24.4649H230.952ZM230.952 3.49993V0.0349307H234.452V3.49993H230.952ZM251.206 20.9649V10.4999H240.706V6.99993H254.671V10.4999V20.9649H251.206ZM237.241 20.9649V10.4999H240.706V20.9649H237.241ZM240.706 24.4649V20.9649H251.206V24.4649H240.706ZM254.671 24.4649V20.9649H258.171V24.4649H254.671ZM260.962 20.9649V0.0349307H264.462V20.9649H260.962ZM264.462 24.4649V20.9649H271.462V24.4649H264.462ZM277.757 10.4649V6.96493H291.722V10.4649H277.757ZM274.257 24.4299V20.9299H288.222V24.4299H274.257ZM274.257 13.9649V10.4649H277.757V13.9649H274.257ZM277.757 17.4299V13.9649H288.222V17.4299H277.757ZM288.222 20.9299V17.4299H291.722V20.9299H288.222Z" fill="white"/>
</svg>
