<svg width="368" height="299" viewBox="0 0 368 299" fill="none" xmlns="http://www.w3.org/2000/svg">
<path d="M203.628 219.469L201.874 211.342L193.747 213.096L191.993 204.969L183.867 206.723L178.605 182.343L186.732 180.589L184.978 172.462L193.105 170.709L191.351 162.582L215.732 157.321L217.485 165.447L225.612 163.694L229.12 179.947L220.993 181.701L222.747 189.828L198.366 195.089L200.12 203.215L208.247 201.462L210.001 209.588L218.127 207.835L216.374 199.708L224.5 197.954L222.747 189.828L239 186.32L242.507 202.573L234.381 204.327L236.135 212.454L203.628 219.469ZM212.866 183.455L209.359 167.201L201.232 168.955L202.986 177.082L194.859 178.835L196.613 186.962L212.866 183.455Z" fill="black"/>
<path d="M284.598 223.201L281.09 206.948L289.217 205.194L282.202 172.687L265.949 176.195L272.964 208.702L264.837 210.455L266.591 218.582L250.337 222.09L246.83 205.836L254.957 204.083L251.449 187.829L243.322 189.583L238.061 165.203L254.314 161.695L256.068 169.822L264.195 168.068L262.441 159.941L278.695 156.434L280.448 164.561L288.575 162.807L290.329 170.934L298.456 169.18L307.224 209.813L299.098 211.567L300.851 219.694L284.598 223.201Z" fill="black"/>
<path d="M323.021 192.846L321.267 184.719L313.141 186.473L302.618 137.713L294.492 139.466L292.738 131.34L308.991 127.832L305.484 111.579L313.61 109.825L311.857 101.698L328.11 98.1908L331.618 114.444L323.491 116.198L326.998 132.451L335.125 130.698L336.879 138.824L320.625 142.332L327.64 174.839L335.767 173.085L339.275 189.338L323.021 192.846Z" fill="black"/>
<path d="M88.9217 96.5089L120.908 89.6061L118.57 78.7705L205.775 59.9515L208.114 70.7871L229.785 66.1105L232.123 76.9461L242.959 74.6077L252.312 117.95L241.476 120.289L243.815 131.124L232.979 133.463L235.318 144.298L191.715 153.708L189.377 142.872L178.801 145.154L176.463 134.319L165.627 136.657L174.98 179.999L164.145 182.338L168.822 204.009L157.986 206.347L160.324 217.183L149.489 219.521L151.827 230.357L130.416 234.977L132.754 245.813L88.8915 255.279L86.5532 244.443L75.7176 246.781L73.3792 235.946L62.5436 238.284L60.2053 227.449L49.6297 229.731L40.2764 186.388L51.112 184.05L44.097 151.543L54.6725 149.261L52.3342 138.425L63.1698 136.087L60.8315 125.251L71.6671 122.913L69.3288 112.077L91.2601 107.344L88.9217 96.5089ZM197.278 73.1255L121.429 89.4938L123.767 100.329L91.5201 107.288L93.8585 118.124L126.105 111.165L128.387 121.741L139.223 119.402L141.561 130.238L152.397 127.9L150.115 117.324L160.95 114.986L158.612 104.15L169.448 101.812L167.109 90.9761L188.781 86.2994L191.119 97.1351L180.283 99.4734L182.622 110.309L171.786 112.647L176.407 134.059L187.242 131.72L189.637 142.816L222.144 135.801L219.805 124.965L230.641 122.627L221.288 79.2844L199.616 83.9611L197.278 73.1255ZM128.444 122.001L95.9367 129.016L98.2751 139.851L87.4395 142.19L89.7778 153.025L78.9422 155.364L81.2805 166.199L102.952 161.523L105.234 172.098L116.07 169.76L118.464 180.855L107.628 183.194L105.29 172.358L83.6189 177.035L85.9572 187.871L96.7928 185.532L99.1311 196.368L88.0355 198.762L85.6971 187.927L75.1216 190.209L72.7832 179.373L61.9476 181.712L66.6243 203.383L77.72 200.988L80.0583 211.824L122.881 202.583L120.542 191.747L131.638 189.353L129.3 178.517L140.135 176.179L135.459 154.508L146.294 152.169L141.618 130.498L130.782 132.836L128.444 122.001ZM66.6243 203.383L55.7887 205.721L60.4653 227.392L71.301 225.054L73.6393 235.89L84.4749 233.551L86.8133 244.387L130.156 235.034L127.817 224.198L138.653 221.86L136.315 211.024L147.15 208.686L142.53 187.274L131.694 189.613L133.976 200.188L123.141 202.527L125.479 213.362L82.1366 222.716L79.7982 211.88L68.9626 214.218L66.6243 203.383ZM93.3383 118.236L71.9272 122.857L74.2655 133.692L63.4299 136.031L65.7682 146.866L54.9326 149.205L59.6093 170.876L70.4449 168.538L68.1066 157.702L78.6821 155.42L76.3438 144.584L87.1794 142.246L84.8411 131.41L95.6767 129.072L93.3383 118.236Z" fill="black"/>
</svg>
