<svg width="295" height="239" viewBox="0 0 295 239" fill="none" xmlns="http://www.w3.org/2000/svg">
<path d="M210.385 179.076L212.94 161.525L221.715 162.803L228.103 118.925L219.327 117.647L221.882 100.096L230.658 101.374L229.38 110.149L238.156 111.427L239.433 102.651L265.76 106.483L264.482 115.259L273.258 116.536L269.426 142.863L260.65 141.586L259.373 150.361L241.821 147.806L237.989 174.133L229.214 172.856L227.936 181.631L210.385 179.076ZM251.874 140.308L255.707 113.982L246.931 112.704L245.654 121.48L236.878 120.202L234.323 137.753L251.874 140.308Z" fill="black"/>
<path d="M40.0941 68.0327L42.8087 49.3847L52.1327 50.7419L53.49 41.4179L71.9143 44.0999L73.2716 34.7759L120.115 41.5949L118.758 50.9189L137.406 53.6335L136.049 62.9575L145.373 64.3148L138.587 110.935L129.263 109.578L125.191 137.55L115.867 136.192L111.795 164.165L139.543 168.204L140.9 158.88L150.448 160.27L151.806 150.946L161.13 152.303L163.844 133.655L173.168 135.012L175.883 116.364L185.207 117.721L187.921 99.0733L197.245 100.431L199.96 81.7825L209.284 83.1398L210.641 73.8158L219.965 75.1731L221.323 65.849L230.647 67.2063L232.004 57.8823L259.976 61.9542L258.619 71.2782L267.943 72.6355L266.585 81.9595L257.038 80.5696L258.395 71.2456L239.971 68.5636L238.613 77.8876L229.289 76.5303L227.932 85.8544L218.608 84.4971L215.893 103.145L206.569 101.788L203.855 120.436L194.531 119.079L190.459 147.051L181.135 145.693L177.063 173.666L167.739 172.308L165.024 190.956L183.672 193.671L185.03 184.347L194.354 185.704L192.997 195.028L183.896 193.703L182.539 203.027L163.443 200.248L164.801 190.924L155.7 189.599L159.74 161.851L150.416 160.493L149.091 169.594L139.767 168.236L138.41 177.56L101.114 172.131L102.471 162.807L93.1468 161.45L98.5433 124.378L89.2193 123.02L87.8946 132.121L78.7943 130.796L77.4371 140.12L39.6934 134.626L41.0507 125.302L31.7266 123.944L33.0839 114.62L23.9837 113.296L30.7701 66.6754L40.0941 68.0327ZM78.7475 64.1378L77.3902 73.4619L68.0662 72.1046L66.7089 81.4286L57.3849 80.0713L53.313 108.043L62.6371 109.401L61.2798 118.725L51.5082 117.302L52.8655 107.978L43.989 106.686L48.0609 78.714L38.7368 77.3567L33.3077 114.653L42.6317 116.01L41.2744 125.334L78.5706 130.763L79.9278 121.439L89.2519 122.797L91.9664 104.149L101.29 105.506L106.72 68.2097L78.7475 64.1378ZM118.534 50.8863L72.1381 44.1325L70.7808 53.4565L61.4568 52.0992L60.0995 61.4233L50.7754 60.066L48.0934 78.4903L57.4175 79.8475L58.7422 70.7473L67.8424 72.072L69.1997 62.748L78.5238 64.1052L79.881 54.7812L108.301 58.9182L106.943 68.2423L116.044 69.567L110.647 106.639L119.971 107.997L126.725 61.6002L117.177 60.2104L118.534 50.8863ZM101.258 105.73L98.5759 124.154L107.9 125.511L110.582 107.087L101.258 105.73Z" fill="black"/>
</svg>
