<svg width="237" height="25" viewBox="0 0 237 25" fill="none" xmlns="http://www.w3.org/2000/svg">
<path d="M3.49961 24.4649V20.9649H-0.000390526V17.4649V6.99993V3.49993H3.49961V-6.88434e-05H17.4646V3.49993H6.99961V6.99993H3.49961V17.4649H6.99961V20.9649H17.4646V24.4649H3.49961ZM34.2332 20.9999V7.03493H37.7332V20.9999H34.2332ZM23.7332 24.4999V20.9999H34.2332V24.4999H23.7332ZM20.2682 20.9999V7.03493H23.7332V20.9999H20.2682ZM44.0367 10.4649V6.96493H58.0017V10.4649H44.0367ZM40.5367 24.4299V20.9299H54.5017V24.4299H40.5367ZM40.5367 13.9649V10.4649H44.0367V13.9649H40.5367ZM44.0367 17.4299V13.9649H54.5017V17.4299H44.0367ZM54.5017 20.9299V17.4299H58.0017V20.9299H54.5017ZM64.3053 20.9999V10.5349H60.8053V7.03493H64.3053V0.0699303H67.8053V7.03493H74.7703V10.5349H67.8053V20.9999H64.3053ZM67.8053 24.4999V20.9999H74.7703V24.4999H67.8053ZM74.7703 20.9999V17.5349H78.2703V20.9999H74.7703ZM95.0388 20.9299V10.4649H98.5388V20.9299H95.0388ZM84.5738 24.4299V20.9299H95.0388V24.4299H84.5738ZM81.0738 20.9299V10.4649H84.5738V20.9299H81.0738ZM84.5738 10.4649V6.96493H95.0388V10.4649H84.5738ZM101.342 24.4649V10.4999H104.842V6.99993H108.342V10.4999H111.842V13.9999H108.342V10.4999H104.842V24.4649H101.342ZM115.342 24.4649V10.4999H111.842V6.99993H115.342V10.4999H118.807V24.4649H115.342ZM121.611 24.4649V6.99993H125.111V24.4649H121.611ZM121.611 3.49993V0.0349307H125.111V3.49993H121.611ZM127.9 10.5349V7.03493H141.865V10.5349H127.9ZM127.9 20.9999V17.5349H131.4V20.9999H127.9ZM131.4 24.4999V20.9999H145.365V24.4999H131.4ZM131.4 17.5349V14.0349H141.865V17.5349H131.4ZM141.865 14.0349V10.5349H145.365V14.0349H141.865ZM162.134 20.9649V10.4999H151.634V6.99993H165.599V10.4999V20.9649H162.134ZM148.169 20.9649V10.4999H151.634V20.9649H148.169ZM151.634 24.4649V20.9649H162.134V24.4649H151.634ZM165.599 24.4649V20.9649H169.099V24.4649H165.599ZM175.389 20.9999V10.5349H171.889V7.03493H175.389V0.0699303H178.889V7.03493H185.854V10.5349H178.889V20.9999H175.389ZM178.889 24.4999V20.9999H185.854V24.4999H178.889ZM185.854 20.9999V17.5349H189.354V20.9999H185.854ZM192.158 24.4649V6.99993H195.658V24.4649H192.158ZM192.158 3.49993V0.0349307H195.658V3.49993H192.158ZM212.412 20.9299V10.4649H215.912V20.9299H212.412ZM201.947 24.4299V20.9299H212.412V24.4299H201.947ZM198.447 20.9299V10.4649H201.947V20.9299H198.447ZM201.947 10.4649V6.96493H212.412V10.4649H201.947ZM218.715 24.4299V10.4649H222.18V6.96493H229.18V10.4649H222.18V24.4299H218.715ZM232.68 24.4299V13.9649H236.145V24.4299H232.68ZM229.18 13.9649V10.4649H232.68V13.9649H229.18Z" fill="black"/>
</svg>
