<svg width="47" height="55" viewBox="0 0 47 55" fill="none" xmlns="http://www.w3.org/2000/svg">
<path d="M41.5518 5.24218H43.9893V2.61249H46.4268V0L31.7695 0V2.61249L41.5518 2.61249V5.24218Z" fill="black"/>
<path d="M41.5512 5.24194H39.0977V7.85444H41.5512V5.24194Z" fill="black"/>
<path d="M39.0957 7.85449H36.6582V10.4842H39.0957V7.85449Z" fill="black"/>
<path d="M36.6602 10.4844H34.2227V13.0969H36.6602V10.4844Z" fill="black"/>
<path d="M34.2231 13.0969H31.7695V18.3391H34.2231V13.0969Z" fill="black"/>
<path d="M34.2231 5.24194H31.7695V7.85444H34.2231V5.24194Z" fill="black"/>
<path d="M31.7676 18.3389H29.3301V20.9514H31.7676V18.3389Z" fill="black"/>
<path d="M31.7676 7.85449H29.3301V10.4842H31.7676V7.85449Z" fill="black"/>
<path d="M31.7681 2.61255H26.877V5.24223H31.7681V2.61255Z" fill="black"/>
<path d="M29.3305 10.4844H26.877V13.0969H29.3305V10.4844Z" fill="black"/>
<path d="M29.3306 20.9514H24.4395V23.5811H29.3306V20.9514Z" fill="black"/>
<path d="M26.877 13.0969H24.4395V15.7094H26.877V13.0969Z" fill="black"/>
<path d="M26.877 5.24194H24.4395V7.85444H26.877V5.24194Z" fill="black"/>
<path d="M2.45358 55.0001H24.4395V52.3876H26.8771V41.9033H24.4395V44.5329H12.2198V41.9033H7.33667V39.2908H2.45358V41.9033H0L0 52.3876H2.45358V55.0001ZM4.89112 44.5329H7.33667V49.7579H12.2278V52.3876H7.33667V49.7579H4.89112V44.5329Z" fill="black"/>
<path d="M24.4395 15.709H22.002V18.3387H24.4395V15.709Z" fill="black"/>
<path d="M24.4395 7.85449H22.002V10.4842H24.4395V7.85449Z" fill="black"/>
<path d="M24.4399 39.2908H19.5488V41.9033H24.4399V39.2908Z" fill="black"/>
<path d="M24.44 23.581H19.5489V20.9514H17.1114V18.3389H14.6738V26.1935H24.44V23.581Z" fill="black"/>
<path d="M22.0024 18.3389H19.5488V20.9514H22.0024V18.3389Z" fill="black"/>
<path d="M22.0024 10.4844H19.5488V13.0969H22.0024V10.4844Z" fill="black"/>
<path d="M19.5489 13.0969H17.1113V18.3391H19.5489V13.0969Z" fill="black"/>
<path d="M9.78174 34.0483H17.1104V39.2905H19.5479V34.0483H22.0015V31.4358H14.6729V26.1936H12.2193V31.4358H4.89062V34.0483H7.32816V39.2905H9.78174V34.0483Z" fill="black"/>
</svg>
