<svg width="341" height="41" viewBox="0 0 341 41" fill="none" xmlns="http://www.w3.org/2000/svg">
<path d="M4.49971 4.54491V0.0449109H17.9547V4.54491H4.49971ZM-0.000292841 26.9999V22.4999H4.49971V26.9999H-0.000292841ZM4.49971 31.4999V26.9999H17.9547V31.4999H4.49971ZM-0.000292841 13.5449V4.54491H4.49971V13.5449H-0.000292841ZM4.49971 17.9999V13.5449H17.9547V17.9999H4.49971ZM17.9547 26.9999V17.9999H22.4547V26.9999H17.9547ZM17.9547 9.04491V4.54491H22.4547V9.04491H17.9547ZM26.0593 26.9549V13.4999H30.5593V17.9999H44.0143V13.4999H48.5143V22.4999H44.0143H30.5593V26.9549H26.0593ZM30.5593 31.4549V26.9549H48.5143V31.4549H30.5593ZM30.5593 13.4999V8.99991H44.0143V13.4999H30.5593ZM52.1188 31.4099V13.4549H56.5738V8.95491H65.5738V13.4549H56.5738V31.4099H52.1188ZM70.0738 31.4099V17.9549H74.5288V31.4099H70.0738ZM65.5738 17.9549V13.4549H70.0738V17.9549H65.5738ZM82.5895 31.4549V26.9549H96.0895V13.4999H82.5895V8.99991H96.0895V0.0449109H100.544V31.4549H96.0895H82.5895ZM78.1345 26.9549V13.4999H82.5895V26.9549H78.1345ZM133.355 26.9549V13.4999H119.855V8.99991H137.81V13.4999V26.9549H133.355ZM115.4 26.9549V13.4999H119.855V26.9549H115.4ZM119.855 31.4549V26.9549H133.355V31.4549H119.855ZM137.81 31.4549V26.9549H142.31V31.4549H137.81ZM157.148 31.4549V4.49991H161.648V-8.85129e-05H166.148V4.49991H161.648V31.4549H157.148ZM175.148 31.4549V4.49991H179.603V31.4549H175.148ZM166.148 13.4549V4.49991H170.648V13.4549H166.148ZM170.648 4.49991V-8.85129e-05H175.148V4.49991H170.648ZM183.208 26.9549V13.4999H187.708V17.9999H201.163V13.4999H205.663V22.4999H201.163H187.708V26.9549H183.208ZM187.708 31.4549V26.9549H205.663V31.4549H187.708ZM187.708 13.4999V8.99991H201.163V13.4999H187.708ZM213.767 13.4549V8.95491H231.722V13.4549H213.767ZM209.267 31.4099V26.9099H227.222V31.4099H209.267ZM209.267 17.9549V13.4549H213.767V17.9549H209.267ZM213.767 22.4099V17.9549H227.222V22.4099H213.767ZM227.222 26.9099V22.4099H231.722V26.9099H227.222ZM239.827 13.4549V8.95491H257.782V13.4549H239.827ZM235.327 31.4099V26.9099H253.282V31.4099H235.327ZM235.327 17.9549V13.4549H239.827V17.9549H235.327ZM239.827 22.4099V17.9549H253.282V22.4099H239.827ZM253.282 26.9099V22.4099H257.782V26.9099H253.282ZM279.341 26.9549V13.4999H265.841V8.99991H283.796V13.4999V26.9549H279.341ZM261.386 26.9549V13.4999H265.841V26.9549H261.386ZM265.841 31.4549V26.9549H279.341V31.4549H265.841ZM283.796 31.4549V26.9549H288.296V31.4549H283.796ZM309.839 35.9549V26.9549H296.339V22.4999H309.839V13.4999H296.339V8.99991H309.839V13.4999H314.294V35.9549H309.839ZM291.884 35.9549V31.4549H296.339V35.9549H291.884ZM296.339 40.4549V35.9549H309.839V40.4549H296.339ZM291.884 22.4999V13.4999H296.339V22.4999H291.884ZM317.9 26.9549V13.4999H322.4V17.9999H335.855V13.4999H340.355V22.4999H335.855H322.4V26.9549H317.9ZM322.4 31.4549V26.9549H340.355V31.4549H322.4ZM322.4 13.4999V8.99991H335.855V13.4999H322.4Z" fill="#09090A"/>
</svg>
