<svg width="411" height="33" viewBox="0 0 411 33" fill="none" xmlns="http://www.w3.org/2000/svg">
<path d="M20.3706 0.0854492V3.07617H11.9111V25.1904H8.45898V3.07617H-0.000488281V0.0854492H20.3706ZM32.6069 6.88721H36.0078C35.5749 8.06071 34.6121 10.7381 33.1196 14.9194C32.0031 18.064 31.0688 20.6274 30.3169 22.6099C28.5396 27.2811 27.2863 30.1294 26.5571 31.1548C25.828 32.1802 24.5747 32.6929 22.7974 32.6929C22.3644 32.6929 22.0283 32.6758 21.7891 32.6416C21.5612 32.6074 21.2764 32.5448 20.9346 32.4536V29.6509C21.4701 29.799 21.8574 29.8901 22.0967 29.9243C22.3359 29.9585 22.5467 29.9756 22.729 29.9756C23.2987 29.9756 23.7145 29.8787 23.9766 29.6851C24.25 29.5028 24.4779 29.2749 24.6602 29.0015C24.7171 28.9103 24.9222 28.4432 25.2754 27.6001C25.6286 26.757 25.8849 26.1304 26.0444 25.7202L19.2769 6.88721H22.7632L27.668 21.7896L32.6069 6.88721ZM46.3984 23.1226C47.834 23.1226 49.0246 22.5244 49.9702 21.3281C50.9272 20.1204 51.4058 18.3203 51.4058 15.9277C51.4058 14.4694 51.195 13.2161 50.7734 12.168C49.9759 10.1514 48.5176 9.14307 46.3984 9.14307C44.2679 9.14307 42.8096 10.2083 42.0234 12.3389C41.6019 13.4782 41.3911 14.9251 41.3911 16.6797C41.3911 18.0924 41.6019 19.2944 42.0234 20.2856C42.821 22.1769 44.2793 23.1226 46.3984 23.1226ZM38.4346 6.97266H41.4253V9.39941C42.0405 8.56771 42.7127 7.92399 43.4419 7.46826C44.4787 6.78467 45.6978 6.44287 47.0991 6.44287C49.1727 6.44287 50.9329 7.2404 52.3799 8.83545C53.8268 10.4191 54.5503 12.6864 54.5503 15.6372C54.5503 19.6248 53.5078 22.4731 51.4229 24.1821C50.1012 25.2645 48.5632 25.8057 46.8086 25.8057C45.43 25.8057 44.2736 25.5037 43.3394 24.8999C42.7925 24.5581 42.1829 23.9714 41.5107 23.1396V32.4878H38.4346V6.97266ZM65.7783 6.47705C67.0771 6.47705 68.3361 6.78467 69.5552 7.3999C70.7743 8.00374 71.7028 8.78988 72.3408 9.7583C72.9561 10.6812 73.3662 11.7578 73.5713 12.9883C73.7536 13.8314 73.8447 15.1758 73.8447 17.0215H60.4292C60.4862 18.8786 60.9248 20.3711 61.7451 21.499C62.5654 22.6156 63.8358 23.1738 65.5562 23.1738C67.1626 23.1738 68.4443 22.644 69.4014 21.5845C69.9482 20.9692 70.3356 20.2572 70.5635 19.4482H73.5884C73.5086 20.1204 73.2409 20.8724 72.7852 21.7041C72.3408 22.5244 71.8395 23.1966 71.2812 23.7207C70.347 24.6322 69.1906 25.2474 67.812 25.5664C67.0715 25.7487 66.234 25.8398 65.2998 25.8398C63.0212 25.8398 61.09 25.0138 59.5063 23.3618C57.9227 21.6984 57.1309 19.3742 57.1309 16.3892C57.1309 13.4497 57.9284 11.0628 59.5234 9.22852C61.1185 7.39421 63.2035 6.47705 65.7783 6.47705ZM70.6831 14.5776C70.5578 13.2446 70.2673 12.1794 69.8115 11.3818C68.9684 9.90072 67.5614 9.16016 65.5903 9.16016C64.1776 9.16016 62.9927 9.67285 62.0356 10.6982C61.0786 11.7122 60.5716 13.0054 60.5146 14.5776H70.6831ZM98.813 6.88721H102.214C101.781 8.06071 100.818 10.7381 99.3257 14.9194C98.2091 18.064 97.2749 20.6274 96.5229 22.6099C94.7456 27.2811 93.4924 30.1294 92.7632 31.1548C92.034 32.1802 90.7808 32.6929 89.0034 32.6929C88.5705 32.6929 88.2344 32.6758 87.9951 32.6416C87.7673 32.6074 87.4824 32.5448 87.1406 32.4536V29.6509C87.6761 29.799 88.0635 29.8901 88.3027 29.9243C88.542 29.9585 88.7528 29.9756 88.9351 29.9756C89.5047 29.9756 89.9206 29.8787 90.1826 29.6851C90.4561 29.5028 90.6839 29.2749 90.8662 29.0015C90.9232 28.9103 91.1283 28.4432 91.4814 27.6001C91.8346 26.757 92.091 26.1304 92.2505 25.7202L85.4829 6.88721H88.9692L93.874 21.7896L98.813 6.88721ZM112.143 23.208C114.182 23.208 115.578 22.439 116.33 20.9009C117.093 19.3514 117.475 17.631 117.475 15.7397C117.475 14.0308 117.202 12.6408 116.655 11.5698C115.789 9.88363 114.296 9.04053 112.177 9.04053C110.297 9.04053 108.93 9.7583 108.076 11.1938C107.221 12.6294 106.794 14.3612 106.794 16.3892C106.794 18.3374 107.221 19.9609 108.076 21.2598C108.93 22.5586 110.286 23.208 112.143 23.208ZM112.263 6.35742C114.621 6.35742 116.615 7.14355 118.244 8.71582C119.873 10.2881 120.688 12.6009 120.688 15.6543C120.688 18.6051 119.97 21.0433 118.535 22.9688C117.099 24.8942 114.872 25.8569 111.853 25.8569C109.335 25.8569 107.335 25.0081 105.854 23.3105C104.373 21.6016 103.632 19.3115 103.632 16.4404C103.632 13.3643 104.413 10.9147 105.974 9.0918C107.535 7.26888 109.631 6.35742 112.263 6.35742ZM127.438 6.88721V19.0381C127.438 19.9723 127.587 20.7357 127.883 21.3281C128.43 22.4219 129.449 22.9688 130.942 22.9688C133.084 22.9688 134.542 22.0117 135.317 20.0977C135.738 19.0723 135.949 17.6652 135.949 15.8765V6.88721H139.025V25.1904H136.12L136.154 22.4902C135.756 23.1852 135.26 23.772 134.667 24.2505C133.494 25.2075 132.07 25.686 130.395 25.686C127.786 25.686 126.009 24.8145 125.063 23.0713C124.55 22.137 124.294 20.8895 124.294 19.3286V6.88721H127.438ZM143.93 6.88721H146.853V10.0488C147.092 9.43359 147.679 8.68734 148.613 7.81006C149.547 6.92139 150.624 6.47705 151.843 6.47705C151.9 6.47705 151.997 6.48275 152.133 6.49414C152.27 6.50553 152.504 6.52832 152.834 6.5625V9.80957C152.652 9.77539 152.481 9.7526 152.321 9.74121C152.173 9.72982 152.008 9.72412 151.826 9.72412C150.276 9.72412 149.086 10.2254 148.254 11.228C147.422 12.2192 147.006 13.3643 147.006 14.6631V25.1904H143.93V6.88721ZM165.241 6.88721H168.283V9.48486C169.012 8.5848 169.673 7.92969 170.266 7.51953C171.28 6.82454 172.43 6.47705 173.718 6.47705C175.176 6.47705 176.35 6.83594 177.238 7.55371C177.74 7.96387 178.195 8.56771 178.605 9.36523C179.289 8.38542 180.092 7.66195 181.015 7.19482C181.938 6.71631 182.975 6.47705 184.125 6.47705C186.586 6.47705 188.261 7.36572 189.15 9.14307C189.628 10.1001 189.868 11.3875 189.868 13.0054V25.1904H186.672V12.4756C186.672 11.2565 186.364 10.4191 185.749 9.96338C185.145 9.50765 184.405 9.27979 183.527 9.27979C182.32 9.27979 181.277 9.68424 180.4 10.4932C179.534 11.3021 179.101 12.6522 179.101 14.5435V25.1904H175.974V13.2446C175.974 12.0028 175.826 11.097 175.529 10.5273C175.062 9.67285 174.191 9.24561 172.915 9.24561C171.752 9.24561 170.693 9.69564 169.736 10.5957C168.79 11.4958 168.317 13.125 168.317 15.4834V25.1904H165.241V6.88721ZM202.019 6.47705C203.317 6.47705 204.576 6.78467 205.795 7.3999C207.014 8.00374 207.943 8.78988 208.581 9.7583C209.196 10.6812 209.606 11.7578 209.812 12.9883C209.994 13.8314 210.085 15.1758 210.085 17.0215H196.669C196.726 18.8786 197.165 20.3711 197.985 21.499C198.806 22.6156 200.076 23.1738 201.796 23.1738C203.403 23.1738 204.685 22.644 205.642 21.5845C206.188 20.9692 206.576 20.2572 206.804 19.4482H209.829C209.749 20.1204 209.481 20.8724 209.025 21.7041C208.581 22.5244 208.08 23.1966 207.521 23.7207C206.587 24.6322 205.431 25.2474 204.052 25.5664C203.312 25.7487 202.474 25.8398 201.54 25.8398C199.261 25.8398 197.33 25.0138 195.747 23.3618C194.163 21.6984 193.371 19.3742 193.371 16.3892C193.371 13.4497 194.169 11.0628 195.764 9.22852C197.359 7.39421 199.444 6.47705 202.019 6.47705ZM206.923 14.5776C206.798 13.2446 206.507 12.1794 206.052 11.3818C205.209 9.90072 203.802 9.16016 201.831 9.16016C200.418 9.16016 199.233 9.67285 198.276 10.6982C197.319 11.7122 196.812 13.0054 196.755 14.5776H206.923ZM215.708 19.4482C215.799 20.4736 216.055 21.2598 216.477 21.8066C217.251 22.7979 218.596 23.2935 220.51 23.2935C221.649 23.2935 222.652 23.0485 223.518 22.5586C224.383 22.0573 224.816 21.2882 224.816 20.2515C224.816 19.4653 224.469 18.8672 223.774 18.457C223.33 18.2064 222.452 17.9159 221.142 17.5854L218.698 16.9702C217.137 16.5828 215.987 16.1499 215.246 15.6714C213.924 14.8397 213.264 13.689 213.264 12.2192C213.264 10.4875 213.885 9.0861 215.126 8.01514C216.38 6.94417 218.06 6.40869 220.168 6.40869C222.925 6.40869 224.913 7.21761 226.132 8.83545C226.896 9.86084 227.266 10.966 227.243 12.1509H224.338C224.281 11.4559 224.036 10.8236 223.603 10.2539C222.897 9.44499 221.672 9.04053 219.929 9.04053C218.767 9.04053 217.884 9.2627 217.28 9.70703C216.687 10.1514 216.391 10.7381 216.391 11.4673C216.391 12.2648 216.784 12.9028 217.57 13.3813C218.026 13.6662 218.698 13.9168 219.587 14.1333L221.621 14.6289C223.831 15.1644 225.312 15.6828 226.064 16.1841C227.26 16.9702 227.858 18.2064 227.858 19.8926C227.858 21.5218 227.237 22.9289 225.996 24.1138C224.765 25.2987 222.885 25.8911 220.356 25.8911C217.633 25.8911 215.702 25.2759 214.562 24.0454C213.435 22.8035 212.831 21.2712 212.751 19.4482H215.708ZM233.208 19.4482C233.299 20.4736 233.555 21.2598 233.977 21.8066C234.751 22.7979 236.096 23.2935 238.01 23.2935C239.149 23.2935 240.152 23.0485 241.018 22.5586C241.883 22.0573 242.316 21.2882 242.316 20.2515C242.316 19.4653 241.969 18.8672 241.274 18.457C240.83 18.2064 239.952 17.9159 238.642 17.5854L236.198 16.9702C234.637 16.5828 233.487 16.1499 232.746 15.6714C231.424 14.8397 230.764 13.689 230.764 12.2192C230.764 10.4875 231.385 9.0861 232.626 8.01514C233.88 6.94417 235.56 6.40869 237.668 6.40869C240.425 6.40869 242.413 7.21761 243.632 8.83545C244.396 9.86084 244.766 10.966 244.743 12.1509H241.838C241.781 11.4559 241.536 10.8236 241.103 10.2539C240.397 9.44499 239.172 9.04053 237.429 9.04053C236.267 9.04053 235.384 9.2627 234.78 9.70703C234.187 10.1514 233.891 10.7381 233.891 11.4673C233.891 12.2648 234.284 12.9028 235.07 13.3813C235.526 13.6662 236.198 13.9168 237.087 14.1333L239.121 14.6289C241.331 15.1644 242.812 15.6828 243.564 16.1841C244.76 16.9702 245.358 18.2064 245.358 19.8926C245.358 21.5218 244.737 22.9289 243.496 24.1138C242.265 25.2987 240.385 25.8911 237.856 25.8911C235.133 25.8911 233.202 25.2759 232.062 24.0454C230.935 22.8035 230.331 21.2712 230.251 19.4482H233.208ZM251.237 20.3198C251.237 21.2085 251.562 21.9092 252.211 22.4219C252.861 22.9346 253.63 23.1909 254.519 23.1909C255.601 23.1909 256.649 22.9403 257.663 22.439C259.372 21.6073 260.227 20.2458 260.227 18.3545V15.8765C259.851 16.1157 259.366 16.3151 258.774 16.4746C258.181 16.6341 257.6 16.748 257.031 16.8164L255.168 17.0557C254.051 17.2038 253.214 17.4373 252.656 17.7563C251.71 18.2918 251.237 19.1463 251.237 20.3198ZM258.688 14.0991C259.395 14.008 259.868 13.7118 260.107 13.2104C260.244 12.937 260.312 12.5439 260.312 12.0312C260.312 10.9831 259.936 10.2254 259.184 9.7583C258.444 9.27979 257.378 9.04053 255.988 9.04053C254.382 9.04053 253.243 9.47347 252.57 10.3394C252.194 10.8179 251.949 11.5299 251.835 12.4756H248.964C249.021 10.2197 249.75 8.65316 251.152 7.77588C252.565 6.88721 254.2 6.44287 256.057 6.44287C258.21 6.44287 259.959 6.85303 261.303 7.67334C262.636 8.49365 263.303 9.76969 263.303 11.5015V22.0459C263.303 22.3649 263.365 22.6213 263.491 22.8149C263.627 23.0086 263.907 23.1055 264.328 23.1055C264.465 23.1055 264.619 23.0998 264.79 23.0884C264.96 23.0656 265.143 23.0371 265.336 23.0029V25.2759C264.858 25.4126 264.493 25.498 264.243 25.5322C263.992 25.5664 263.65 25.5835 263.217 25.5835C262.158 25.5835 261.389 25.2075 260.91 24.4556C260.66 24.0568 260.483 23.4928 260.38 22.7637C259.754 23.584 258.854 24.2961 257.68 24.8999C256.507 25.5037 255.214 25.8057 253.801 25.8057C252.103 25.8057 250.713 25.293 249.631 24.2676C248.56 23.2308 248.024 21.9377 248.024 20.3882C248.024 18.6906 248.554 17.3747 249.614 16.4404C250.673 15.5062 252.063 14.9308 253.784 14.7144L258.688 14.0991ZM274.821 6.5625C276.257 6.5625 277.51 6.91569 278.581 7.62207C279.162 8.02083 279.755 8.60189 280.358 9.36523V7.05811H283.195V23.7036C283.195 26.0278 282.854 27.8621 282.17 29.2065C280.894 31.6903 278.484 32.9321 274.941 32.9321C272.97 32.9321 271.312 32.4878 269.968 31.5991C268.623 30.7218 267.871 29.3433 267.712 27.4634H270.839C270.987 28.2837 271.284 28.916 271.728 29.3604C272.423 30.0439 273.517 30.3857 275.009 30.3857C277.368 30.3857 278.911 29.554 279.641 27.8906C280.074 26.9108 280.273 25.1619 280.239 22.644C279.624 23.5783 278.883 24.2733 278.017 24.729C277.151 25.1847 276.006 25.4126 274.582 25.4126C272.6 25.4126 270.862 24.7119 269.37 23.3105C267.889 21.8978 267.148 19.5679 267.148 16.3208C267.148 13.256 267.894 10.8634 269.387 9.14307C270.891 7.42269 272.702 6.5625 274.821 6.5625ZM280.358 15.9619C280.358 13.6947 279.891 12.0142 278.957 10.9204C278.023 9.82666 276.832 9.27979 275.385 9.27979C273.221 9.27979 271.739 10.2938 270.942 12.3218C270.52 13.4041 270.31 14.8226 270.31 16.5771C270.31 18.6393 270.725 20.2116 271.557 21.2939C272.4 22.3649 273.528 22.9004 274.941 22.9004C277.151 22.9004 278.706 21.9035 279.606 19.9097C280.108 18.7817 280.358 17.4658 280.358 15.9619ZM295.466 6.47705C296.765 6.47705 298.024 6.78467 299.243 7.3999C300.462 8.00374 301.39 8.78988 302.028 9.7583C302.644 10.6812 303.054 11.7578 303.259 12.9883C303.441 13.8314 303.532 15.1758 303.532 17.0215H290.117C290.174 18.8786 290.612 20.3711 291.433 21.499C292.253 22.6156 293.523 23.1738 295.244 23.1738C296.85 23.1738 298.132 22.644 299.089 21.5845C299.636 20.9692 300.023 20.2572 300.251 19.4482H303.276C303.196 20.1204 302.928 20.8724 302.473 21.7041C302.028 22.5244 301.527 23.1966 300.969 23.7207C300.035 24.6322 298.878 25.2474 297.5 25.5664C296.759 25.7487 295.922 25.8398 294.987 25.8398C292.709 25.8398 290.778 25.0138 289.194 23.3618C287.61 21.6984 286.818 19.3742 286.818 16.3892C286.818 13.4497 287.616 11.0628 289.211 9.22852C290.806 7.39421 292.891 6.47705 295.466 6.47705ZM300.371 14.5776C300.245 13.2446 299.955 12.1794 299.499 11.3818C298.656 9.90072 297.249 9.16016 295.278 9.16016C293.865 9.16016 292.68 9.67285 291.723 10.6982C290.766 11.7122 290.259 13.0054 290.202 14.5776H300.371ZM317.067 0H320.144V9.36523C320.873 8.44238 321.528 7.79297 322.109 7.41699C323.1 6.76758 324.336 6.44287 325.817 6.44287C328.472 6.44287 330.272 7.37142 331.218 9.22852C331.73 10.2425 331.987 11.6496 331.987 13.4497V25.1904H328.825V13.6548C328.825 12.3104 328.654 11.3249 328.312 10.6982C327.754 9.69564 326.706 9.19434 325.168 9.19434C323.892 9.19434 322.736 9.63298 321.699 10.5103C320.662 11.3875 320.144 13.0452 320.144 15.4834V25.1904H317.067V0ZM344.172 6.47705C345.471 6.47705 346.73 6.78467 347.949 7.3999C349.168 8.00374 350.096 8.78988 350.734 9.7583C351.35 10.6812 351.76 11.7578 351.965 12.9883C352.147 13.8314 352.238 15.1758 352.238 17.0215H338.823C338.88 18.8786 339.318 20.3711 340.139 21.499C340.959 22.6156 342.229 23.1738 343.95 23.1738C345.556 23.1738 346.838 22.644 347.795 21.5845C348.342 20.9692 348.729 20.2572 348.957 19.4482H351.982C351.902 20.1204 351.634 20.8724 351.179 21.7041C350.734 22.5244 350.233 23.1966 349.675 23.7207C348.741 24.6322 347.584 25.2474 346.206 25.5664C345.465 25.7487 344.628 25.8398 343.693 25.8398C341.415 25.8398 339.484 25.0138 337.9 23.3618C336.316 21.6984 335.524 19.3742 335.524 16.3892C335.524 13.4497 336.322 11.0628 337.917 9.22852C339.512 7.39421 341.597 6.47705 344.172 6.47705ZM349.077 14.5776C348.951 13.2446 348.661 12.1794 348.205 11.3818C347.362 9.90072 345.955 9.16016 343.984 9.16016C342.571 9.16016 341.386 9.67285 340.429 10.6982C339.472 11.7122 338.965 13.0054 338.908 14.5776H349.077ZM356.118 6.88721H359.04V10.0488C359.279 9.43359 359.866 8.68734 360.8 7.81006C361.735 6.92139 362.811 6.47705 364.03 6.47705C364.087 6.47705 364.184 6.48275 364.321 6.49414C364.458 6.50553 364.691 6.52832 365.021 6.5625V9.80957C364.839 9.77539 364.668 9.7526 364.509 9.74121C364.361 9.72982 364.195 9.72412 364.013 9.72412C362.464 9.72412 361.273 10.2254 360.441 11.228C359.61 12.2192 359.194 13.3643 359.194 14.6631V25.1904H356.118V6.88721ZM375.31 6.47705C376.608 6.47705 377.867 6.78467 379.086 7.3999C380.306 8.00374 381.234 8.78988 381.872 9.7583C382.487 10.6812 382.897 11.7578 383.103 12.9883C383.285 13.8314 383.376 15.1758 383.376 17.0215H369.96C370.017 18.8786 370.456 20.3711 371.276 21.499C372.097 22.6156 373.367 23.1738 375.087 23.1738C376.694 23.1738 377.976 22.644 378.933 21.5845C379.479 20.9692 379.867 20.2572 380.095 19.4482H383.12C383.04 20.1204 382.772 20.8724 382.316 21.7041C381.872 22.5244 381.371 23.1966 380.812 23.7207C379.878 24.6322 378.722 25.2474 377.343 25.5664C376.603 25.7487 375.765 25.8398 374.831 25.8398C372.552 25.8398 370.621 25.0138 369.038 23.3618C367.454 21.6984 366.662 19.3742 366.662 16.3892C366.662 13.4497 367.46 11.0628 369.055 9.22852C370.65 7.39421 372.735 6.47705 375.31 6.47705ZM380.214 14.5776C380.089 13.2446 379.799 12.1794 379.343 11.3818C378.5 9.90072 377.093 9.16016 375.122 9.16016C373.709 9.16016 372.524 9.67285 371.567 10.6982C370.61 11.7122 370.103 13.0054 370.046 14.5776H380.214ZM387.905 21.4648H391.477V25.1904H387.905V21.4648ZM397.646 21.4648H401.218V25.1904H397.646V21.4648ZM407.387 21.4648H410.959V25.1904H407.387V21.4648Z" fill="black"/>
</svg>
